<svg width="700" height="400" viewBox="0 0 700 400" fill="none" xmlns="http://www.w3.org/2000/svg">
<ellipse cx="20" cy="30.5" rx="61" ry="53.5" fill="#D9D9D9"/>
<ellipse cx="713" cy="416.5" rx="61" ry="53.5" fill="#D9D9D9"/>
<ellipse cx="713" cy="137.5" rx="61" ry="53.5" fill="#D9D9D9"/>
<ellipse cx="186" cy="400" rx="49" ry="60" fill="#D9D9D9"/>
<circle cx="452.5" cy="49.5" r="42.5" fill="#D9D9D9"/>
<ellipse cx="149" cy="118.5" rx="32" ry="29.5" fill="#D9D9D9"/>
<ellipse cx="5" cy="262.5" rx="32" ry="29.5" fill="#D9D9D9"/>
<ellipse cx="531.5" cy="310.5" rx="36.5" ry="35.5" fill="#D9D9D9"/>
<path d="M120.48 204.2C120.48 200.733 121.093 197.347 122.32 194.04C123.6 190.68 125.44 187.64 127.84 184.92C130.24 182.147 133.173 179.96 136.64 178.36C140.107 176.707 144.053 175.88 148.48 175.88C153.707 175.88 158.213 177.027 162 179.32C165.84 181.613 168.693 184.6 170.56 188.28L162.08 194.12C161.12 191.987 159.867 190.307 158.32 189.08C156.773 187.8 155.12 186.92 153.36 186.44C151.6 185.907 149.867 185.64 148.16 185.64C145.387 185.64 142.96 186.2 140.88 187.32C138.853 188.44 137.147 189.907 135.76 191.72C134.373 193.533 133.333 195.56 132.64 197.8C132 200.04 131.68 202.28 131.68 204.52C131.68 207.027 132.08 209.453 132.88 211.8C133.68 214.093 134.8 216.147 136.24 217.96C137.733 219.72 139.493 221.133 141.52 222.2C143.6 223.213 145.867 223.72 148.32 223.72C150.08 223.72 151.867 223.427 153.68 222.84C155.493 222.253 157.173 221.32 158.72 220.04C160.267 218.76 161.467 217.107 162.32 215.08L171.36 220.28C170.24 223.107 168.4 225.507 165.84 227.48C163.333 229.453 160.507 230.947 157.36 231.96C154.213 232.973 151.093 233.48 148 233.48C143.947 233.48 140.24 232.653 136.88 231C133.52 229.293 130.613 227.053 128.16 224.28C125.76 221.453 123.867 218.307 122.48 214.84C121.147 211.32 120.48 207.773 120.48 204.2ZM202.844 233.4C198.31 233.4 194.444 232.653 191.244 231.16C188.097 229.613 185.537 227.507 183.564 224.84C181.644 222.173 180.23 219.16 179.324 215.8C178.417 212.387 177.964 208.84 177.964 205.16V176.2H189.004V205.16C189.004 207.507 189.217 209.8 189.644 212.04C190.124 214.227 190.897 216.2 191.964 217.96C193.03 219.72 194.444 221.107 196.204 222.12C197.964 223.133 200.15 223.64 202.764 223.64C205.43 223.64 207.644 223.133 209.404 222.12C211.217 221.053 212.63 219.64 213.644 217.88C214.71 216.12 215.484 214.147 215.964 211.96C216.444 209.72 216.684 207.453 216.684 205.16V176.2H227.644V205.16C227.644 209.053 227.164 212.707 226.204 216.12C225.297 219.533 223.83 222.547 221.804 225.16C219.83 227.72 217.27 229.747 214.124 231.24C210.977 232.68 207.217 233.4 202.844 233.4ZM238.764 233V176.2H263.884C266.497 176.2 268.897 176.733 271.084 177.8C273.324 178.867 275.244 180.307 276.844 182.12C278.497 183.933 279.75 185.96 280.604 188.2C281.51 190.44 281.964 192.733 281.964 195.08C281.964 197.48 281.537 199.8 280.684 202.04C279.884 204.227 278.71 206.147 277.164 207.8C275.617 209.453 273.804 210.733 271.724 211.64L284.684 233H272.524L260.844 213.96H249.804V233H238.764ZM249.804 204.28H263.644C265.03 204.28 266.257 203.88 267.324 203.08C268.39 202.227 269.244 201.107 269.884 199.72C270.524 198.333 270.844 196.787 270.844 195.08C270.844 193.267 270.47 191.693 269.724 190.36C268.977 188.973 268.017 187.88 266.844 187.08C265.724 186.28 264.497 185.88 263.164 185.88H249.804V204.28ZM325.807 191.08C325.434 190.707 324.74 190.2 323.727 189.56C322.767 188.92 321.567 188.307 320.127 187.72C318.74 187.133 317.22 186.627 315.567 186.2C313.914 185.72 312.234 185.48 310.527 185.48C307.54 185.48 305.274 186.04 303.727 187.16C302.234 188.28 301.487 189.853 301.487 191.88C301.487 193.427 301.967 194.653 302.927 195.56C303.887 196.467 305.327 197.24 307.247 197.88C309.167 198.52 311.567 199.213 314.447 199.96C318.18 200.867 321.407 201.987 324.127 203.32C326.9 204.6 329.007 206.307 330.447 208.44C331.94 210.52 332.687 213.293 332.687 216.76C332.687 219.8 332.127 222.413 331.007 224.6C329.887 226.733 328.34 228.467 326.367 229.8C324.394 231.133 322.154 232.12 319.647 232.76C317.14 233.347 314.474 233.64 311.647 233.64C308.82 233.64 305.994 233.347 303.167 232.76C300.34 232.173 297.62 231.347 295.007 230.28C292.394 229.16 289.994 227.827 287.807 226.28L292.687 216.76C293.167 217.24 294.02 217.88 295.247 218.68C296.474 219.427 297.967 220.2 299.727 221C301.487 221.747 303.407 222.387 305.487 222.92C307.567 223.453 309.674 223.72 311.807 223.72C314.794 223.72 317.06 223.213 318.607 222.2C320.154 221.187 320.927 219.747 320.927 217.88C320.927 216.173 320.314 214.84 319.087 213.88C317.86 212.92 316.154 212.093 313.967 211.4C311.78 210.653 309.194 209.853 306.207 209C302.634 207.987 299.647 206.867 297.247 205.64C294.847 204.36 293.06 202.76 291.887 200.84C290.714 198.92 290.127 196.52 290.127 193.64C290.127 189.747 291.034 186.493 292.847 183.88C294.714 181.213 297.22 179.213 300.367 177.88C303.514 176.493 307.007 175.8 310.847 175.8C313.514 175.8 316.02 176.093 318.367 176.68C320.767 177.267 323.007 178.04 325.087 179C327.167 179.96 329.034 181 330.687 182.12L325.807 191.08ZM365.269 233.4C361.109 233.4 357.323 232.6 353.909 231C350.549 229.4 347.643 227.24 345.189 224.52C342.789 221.747 340.923 218.653 339.589 215.24C338.256 211.773 337.589 208.227 337.589 204.6C337.589 200.813 338.283 197.213 339.669 193.8C341.109 190.333 343.056 187.267 345.509 184.6C348.016 181.88 350.949 179.747 354.309 178.2C357.723 176.6 361.456 175.8 365.509 175.8C369.616 175.8 373.349 176.627 376.709 178.28C380.123 179.933 383.029 182.147 385.429 184.92C387.829 187.693 389.696 190.787 391.029 194.2C392.363 197.613 393.029 201.133 393.029 204.76C393.029 208.493 392.336 212.093 390.949 215.56C389.563 218.973 387.616 222.04 385.109 224.76C382.656 227.427 379.723 229.533 376.309 231.08C372.949 232.627 369.269 233.4 365.269 233.4ZM348.789 204.6C348.789 207.053 349.163 209.427 349.909 211.72C350.656 214.013 351.723 216.067 353.109 217.88C354.549 219.64 356.283 221.053 358.309 222.12C360.389 223.133 362.736 223.64 365.349 223.64C368.016 223.64 370.389 223.107 372.469 222.04C374.549 220.92 376.283 219.453 377.669 217.64C379.056 215.773 380.096 213.72 380.789 211.48C381.536 209.187 381.909 206.893 381.909 204.6C381.909 202.147 381.509 199.8 380.709 197.56C379.963 195.267 378.869 193.24 377.429 191.48C376.043 189.667 374.309 188.253 372.229 187.24C370.203 186.173 367.909 185.64 365.349 185.64C362.629 185.64 360.229 186.2 358.149 187.32C356.123 188.387 354.416 189.827 353.029 191.64C351.643 193.453 350.576 195.48 349.829 197.72C349.136 199.96 348.789 202.253 348.789 204.6ZM417.277 204.2C417.277 200.733 417.89 197.347 419.117 194.04C420.397 190.68 422.237 187.64 424.637 184.92C427.037 182.147 429.97 179.96 433.437 178.36C436.904 176.707 440.85 175.88 445.277 175.88C450.504 175.88 455.01 177.027 458.797 179.32C462.637 181.613 465.49 184.6 467.357 188.28L458.877 194.12C457.917 191.987 456.664 190.307 455.117 189.08C453.57 187.8 451.917 186.92 450.157 186.44C448.397 185.907 446.664 185.64 444.957 185.64C442.184 185.64 439.757 186.2 437.677 187.32C435.65 188.44 433.944 189.907 432.557 191.72C431.17 193.533 430.13 195.56 429.437 197.8C428.797 200.04 428.477 202.28 428.477 204.52C428.477 207.027 428.877 209.453 429.677 211.8C430.477 214.093 431.597 216.147 433.037 217.96C434.53 219.72 436.29 221.133 438.317 222.2C440.397 223.213 442.664 223.72 445.117 223.72C446.877 223.72 448.664 223.427 450.477 222.84C452.29 222.253 453.97 221.32 455.517 220.04C457.064 218.76 458.264 217.107 459.117 215.08L468.157 220.28C467.037 223.107 465.197 225.507 462.637 227.48C460.13 229.453 457.304 230.947 454.157 231.96C451.01 232.973 447.89 233.48 444.797 233.48C440.744 233.48 437.037 232.653 433.677 231C430.317 229.293 427.41 227.053 424.957 224.28C422.557 221.453 420.664 218.307 419.277 214.84C417.944 211.32 417.277 207.773 417.277 204.2ZM509.401 191.08C509.027 190.707 508.334 190.2 507.321 189.56C506.361 188.92 505.161 188.307 503.721 187.72C502.334 187.133 500.814 186.627 499.161 186.2C497.507 185.72 495.827 185.48 494.121 185.48C491.134 185.48 488.867 186.04 487.321 187.16C485.827 188.28 485.081 189.853 485.081 191.88C485.081 193.427 485.561 194.653 486.521 195.56C487.481 196.467 488.921 197.24 490.841 197.88C492.761 198.52 495.161 199.213 498.041 199.96C501.774 200.867 505.001 201.987 507.721 203.32C510.494 204.6 512.601 206.307 514.041 208.44C515.534 210.52 516.281 213.293 516.281 216.76C516.281 219.8 515.721 222.413 514.601 224.6C513.481 226.733 511.934 228.467 509.961 229.8C507.987 231.133 505.747 232.12 503.241 232.76C500.734 233.347 498.067 233.64 495.241 233.64C492.414 233.64 489.587 233.347 486.761 232.76C483.934 232.173 481.214 231.347 478.601 230.28C475.987 229.16 473.587 227.827 471.401 226.28L476.281 216.76C476.761 217.24 477.614 217.88 478.841 218.68C480.067 219.427 481.561 220.2 483.321 221C485.081 221.747 487.001 222.387 489.081 222.92C491.161 223.453 493.267 223.72 495.401 223.72C498.387 223.72 500.654 223.213 502.201 222.2C503.747 221.187 504.521 219.747 504.521 217.88C504.521 216.173 503.907 214.84 502.681 213.88C501.454 212.92 499.747 212.093 497.561 211.4C495.374 210.653 492.787 209.853 489.801 209C486.227 207.987 483.241 206.867 480.841 205.64C478.441 204.36 476.654 202.76 475.481 200.84C474.307 198.92 473.721 196.52 473.721 193.64C473.721 189.747 474.627 186.493 476.441 183.88C478.307 181.213 480.814 179.213 483.961 177.88C487.107 176.493 490.601 175.8 494.441 175.8C497.107 175.8 499.614 176.093 501.961 176.68C504.361 177.267 506.601 178.04 508.681 179C510.761 179.96 512.627 181 514.281 182.12L509.401 191.08ZM558.463 191.08C558.09 190.707 557.396 190.2 556.383 189.56C555.423 188.92 554.223 188.307 552.783 187.72C551.396 187.133 549.876 186.627 548.223 186.2C546.57 185.72 544.89 185.48 543.183 185.48C540.196 185.48 537.93 186.04 536.383 187.16C534.89 188.28 534.143 189.853 534.143 191.88C534.143 193.427 534.623 194.653 535.583 195.56C536.543 196.467 537.983 197.24 539.903 197.88C541.823 198.52 544.223 199.213 547.103 199.96C550.836 200.867 554.063 201.987 556.783 203.32C559.556 204.6 561.663 206.307 563.103 208.44C564.596 210.52 565.343 213.293 565.343 216.76C565.343 219.8 564.783 222.413 563.663 224.6C562.543 226.733 560.996 228.467 559.023 229.8C557.05 231.133 554.81 232.12 552.303 232.76C549.796 233.347 547.13 233.64 544.303 233.64C541.476 233.64 538.65 233.347 535.823 232.76C532.996 232.173 530.276 231.347 527.663 230.28C525.05 229.16 522.65 227.827 520.463 226.28L525.343 216.76C525.823 217.24 526.676 217.88 527.903 218.68C529.13 219.427 530.623 220.2 532.383 221C534.143 221.747 536.063 222.387 538.143 222.92C540.223 223.453 542.33 223.72 544.463 223.72C547.45 223.72 549.716 223.213 551.263 222.2C552.81 221.187 553.583 219.747 553.583 217.88C553.583 216.173 552.97 214.84 551.743 213.88C550.516 212.92 548.81 212.093 546.623 211.4C544.436 210.653 541.85 209.853 538.863 209C535.29 207.987 532.303 206.867 529.903 205.64C527.503 204.36 525.716 202.76 524.543 200.84C523.37 198.92 522.783 196.52 522.783 193.64C522.783 189.747 523.69 186.493 525.503 183.88C527.37 181.213 529.876 179.213 533.023 177.88C536.17 176.493 539.663 175.8 543.503 175.8C546.17 175.8 548.676 176.093 551.023 176.68C553.423 177.267 555.663 178.04 557.743 179C559.823 179.96 561.69 181 563.343 182.12L558.463 191.08Z" fill="black"/>
</svg>
